<?xml version="1.0" encoding="UTF-8" standalone="no"?>
<svg
   xmlns:dc="http://purl.org/dc/elements/1.1/"
   xmlns:cc="http://creativecommons.org/ns#"
   xmlns:rdf="http://www.w3.org/1999/02/22-rdf-syntax-ns#"
   xmlns:svg="http://www.w3.org/2000/svg"
   xmlns="http://www.w3.org/2000/svg"
   xmlns:sodipodi="http://sodipodi.sourceforge.net/DTD/sodipodi-0.dtd"
   xmlns:inkscape="http://www.inkscape.org/namespaces/inkscape"
   sodipodi:docname="logo.svg"
   inkscape:version="1.1-dev (ddb55ca, 2020-02-02)"
   id="svg861"
   version="1.1"
   viewBox="0 0 210 297"
   height="297mm"
   width="210mm">
  <defs
     id="defs855" />
  <sodipodi:namedview
     inkscape:window-maximized="0"
     inkscape:window-y="23"
     inkscape:window-x="0"
     inkscape:window-height="781"
     inkscape:window-width="1440"
     inkscape:snap-global="true"
     inkscape:snap-nodes="true"
     inkscape:snap-others="true"
     showgrid="false"
     inkscape:current-layer="layer1"
     inkscape:document-units="mm"
     inkscape:cy="1068.0228"
     inkscape:cx="-138.06282"
     inkscape:zoom="0.13282933"
     inkscape:pageshadow="2"
     inkscape:pageopacity="0.0"
     borderopacity="1.0"
     bordercolor="#666666"
     pagecolor="#ffffff"
     id="base" />
  <metadata
     id="metadata858">
    <rdf:RDF>
      <cc:Work
         rdf:about="">
        <dc:format>image/svg+xml</dc:format>
        <dc:type
           rdf:resource="http://purl.org/dc/dcmitype/StillImage" />
        <dc:title></dc:title>
      </cc:Work>
    </rdf:RDF>
  </metadata>
  <g
     id="layer1"
     inkscape:groupmode="layer"
     inkscape:label="Calque 1">
    <path
       transform="scale(0.26458333)"
       d="M 449.89062 167.24219 C 439.59028 168.63237 371.37426 314.31437 343.79297 364.55859 L 497.41602 376.78125 C 482.25451 312.76115 458.8873 168.51504 450.16602 167.24219 C 450.07955 167.22957 449.9874 167.22913 449.89062 167.24219 z M 99.001953 360.18945 C 92.195959 360.21937 88.043538 360.78524 87.417969 362.05078 C 83.477111 370.02324 190.30878 470.53868 235.27539 516.94727 L 301.03906 380.08984 C 245.65644 374.88983 135.07592 360.03089 99.001953 360.18945 z M 328.07422 393.63867 L 248.87305 558.46289 L 248.61914 558.3418 C 226.79109 611.87849 155.15736 759.46764 160.59766 767.24414 C 220.0305 852.199 391.66594 672.17881 402.74805 673.68945 C 413.93828 675.21483 494.71031 756.92759 518.99219 780.77539 C 621.5686 881.51798 634.06632 793.05811 540.35352 654.57422 C 511.60201 612.08677 495.14719 591.24332 625.6582 514.2207 C 770.60773 428.67702 631.34709 422.87877 516.8418 408.00586 L 516.79102 408.6543 L 328.07422 393.63867 z M 382.69336 470.54883 C 382.69336 470.54883 428.86448 472.44309 491.39453 479.48242 C 553.92455 486.52172 376.71133 590.64671 339.76953 565.51758 L 382.69336 470.54883 z "
       inkscape:transform-center-y="-5.0743923"
       inkscape:transform-center-x="-3.8565463"
       style="opacity:0.94;fill:#34437a;fill-opacity:1;stroke-width:5.66929;stroke-linecap:round"
       id="path1424" />
    <path
       transform="scale(0.26458333)"
       d="M 341.19922 417.47266 C 341.19922 417.47266 222.46843 683.87789 189.16211 754.6582 C 185.10928 763.27099 201.542 766.07629 213.69531 764.37891 C 253.19353 758.86238 302.77881 709.11568 406.55859 626.14258 C 468.5509 685.8683 468.62986 686.07587 516.32617 733.48438 C 545.08713 762.07178 580.15348 782.14178 539.90234 711.57422 C 499.65121 641.00662 464.31154 600.19078 494.38672 576.81641 C 570.3305 521.11528 596.27675 502.22779 629.77734 472.93555 C 658.9381 447.43798 588.10331 435.73988 501.07617 429.22266 C 407.34071 422.20305 341.19922 417.47266 341.19922 417.47266 z M 360.97852 444.78516 C 360.97852 444.78516 473.46499 451.63442 546.25 457.42383 C 626.8177 463.83224 411.11973 620.88265 325.91992 604.67188 C 290.47093 671.78925 291.75667 669.67306 273.78906 700.01367 C 252.085 721.6359 227.77344 727.60547 227.77344 727.60547 L 360.97852 444.78516 z "
       style="fill:#adcfec;fill-opacity:1;stroke:none;stroke-width:0.999999px;stroke-linecap:butt;stroke-linejoin:miter;stroke-opacity:1"
       id="path1427" />
    <path
       transform="scale(0.26458333)"
       d="M 360.97852 444.78516 L 227.77344 727.60547 C 227.77344 727.60547 252.085 721.6359 273.78906 700.01367 C 291.75667 669.67306 290.47093 671.78925 325.91992 604.67188 C 411.11973 620.88265 626.8177 463.83224 546.25 457.42383 C 473.46499 451.63442 360.97852 444.78516 360.97852 444.78516 z M 382.69336 470.54883 C 382.69336 470.54883 428.86448 472.44309 491.39453 479.48242 C 553.92455 486.52172 376.71133 590.64671 339.76953 565.51758 L 382.69336 470.54883 z "
       style="fill:#34437a;fill-opacity:0.941176;stroke:none;stroke-width:22.7062;stroke-linecap:round;stroke-linejoin:round;stroke-miterlimit:4;stroke-dasharray:none;stroke-opacity:1"
       id="path1429" />
  </g>
</svg>
